<svg width="24" height="24" version="1.1" viewBox="0 0 37.683 35.132" xmlns="http://www.w3.org/2000/svg">
	<g transform="translate(-89.713 -98.473)">
		<path d="m108.55 99.473c-9.8512 0-17.84 7.6045-17.84 16.986 0 7.5034 5.1118 13.87 12.202 16.117 0.8927 0.15547 1.218-0.36911 1.218-0.81956 0-0.40354-0.0155-1.4713-0.0248-2.8883-4.9628 1.026-6.0099-2.2773-6.0099-2.2773-0.81162-1.9624-1.9814-2.4848-1.9814-2.4848-1.6199-1.0532 0.12264-1.0323 0.12264-1.0323 1.7908 0.12 2.7328 1.7507 2.7328 1.7507 1.5915 2.5953 4.1764 1.8456 5.1929 1.4108 0.16207-1.0969 0.62323-1.8456 1.1325-2.27-3.9618-0.42958-8.1272-1.8862-8.1272-8.3949 0-1.855 0.69552-3.3701 1.8368-4.5577-0.18412-0.42961-0.79629-2.1564 0.17511-4.4952 0 0 1.4973-0.45669 4.9059 1.7403 1.4228-0.37641 2.9497-0.5641 4.4667-0.5714 1.5159 6e-3 3.0417 0.19507 4.4667 0.5714 3.4064-2.197 4.9015-1.7403 4.9015-1.7403 0.97373 2.3388 0.36143 4.0655 0.17853 4.4952 1.1435 1.1876 1.8336 2.7027 1.8336 4.5577 0 6.5253-4.172 7.9611-8.1458 8.3813 0.63966 0.5245 1.2103 1.561 1.2103 3.1459 0 2.27-0.0217 4.102-0.0217 4.6588 0 0.45462 0.32203 0.98328 1.2268 0.81749 7.0845-2.2512 12.192-8.6128 12.192-16.115 0-9.3813-7.9892-16.986-17.844-16.986" fill="#1b1817" fill-rule="evenodd" />
	</g>
</svg>
